<svg width="40px" height="40px" viewBox="0 0 40 40" version="1.1" xmlns="http://www.w3.org/2000/svg" xmlns:xlink="http://www.w3.org/1999/xlink">
    <g id="Desktop" stroke="none" stroke-width="1" fill="none" fill-rule="evenodd">
        <g id="Desktop_Landing_Page_1280" transform="translate(-30.000000, -10.000000)" fill="#00BFFF">
            <g id="Top-nav" transform="translate(1.000000, 0.000000)">
                <path d="M58.3879682,20.6123781 L69,20.6123781 L69,10 L58.3879682,10 L58.3879682,20.6123781 Z M29,20.6123781 L39.6120318,20.6123781 L39.6120318,10 L29,10 L29,20.6123781 Z M58.3879682,35.3055365 L69,35.3055365 L69,24.6931585 L58.3879682,24.6931585 L58.3879682,35.3055365 Z M43.6939841,35.3055365 L54.3060159,35.3055365 L54.3060159,24.6931585 L43.6939841,24.6931585 L43.6939841,35.3055365 Z M29,35.3055365 L39.6120318,35.3055365 L39.6120318,24.6931585 L29,24.6931585 L29,35.3055365 Z M58.3879682,50 L69,50 L69,39.3876219 L58.3879682,39.3876219 L58.3879682,50 Z M29,50 L39.6120318,50 L39.6120318,39.3876219 L29,39.3876219 L29,50 Z" id="Page-1"></path>
            </g>
        </g>
    </g>
</svg>
