<?xml version="1.0" encoding="UTF-8" standalone="no"?>
<svg width="176px" height="30px" viewBox="0 0 176 30" version="1.1" xmlns="http://www.w3.org/2000/svg" xmlns:xlink="http://www.w3.org/1999/xlink">
    <!-- Generator: Sketch 43.2 (39069) - http://www.bohemiancoding.com/sketch -->
    <title>Group 10</title>
    <desc>Created with Sketch.</desc>
    <defs>
        <polygon id="path-1" points="0 28.8451583 175.684354 28.8451583 175.684354 0 0 0"></polygon>
    </defs>
    <g id="Desktop" stroke="none" stroke-width="1" fill="none" fill-rule="evenodd">
        <g id="Desktop_Tickets_Page_1280" transform="translate(-668.000000, -4862.000000)">
            <g id="Group-4" transform="translate(-11.000000, 3333.000000)">
                <g id="Group-11" transform="translate(448.000000, 1527.000000)">
                    <g id="Group-10" transform="translate(231.154791, 2.481081)">
                        <g id="Page-1">
                            <path d="M69.9674472,17.6944824 C67.7683661,17.6944824 65.2088771,17.0193095 62.6389214,15.7020946 L64.4447985,12.183244 C67.9124595,13.9611528 70.6914029,14.0389233 71.8064693,13.3574729 C72.0691867,13.1970496 72.3130639,12.9651333 72.3130639,12.3631971 C72.3130639,11.2444189 69.7553194,10.8601004 69.4636437,10.8199946 C63.8077174,10.0422903 63.1971523,6.74175493 63.1971523,5.35897571 C63.1971523,3.47783797 64.0498501,1.92138307 65.5982432,0.976280495 C68.2250688,-0.627952654 72.4233145,-0.238054249 76.827059,2.02007828 L75.0215307,5.53927756 C71.5458452,3.75683504 68.7689951,3.67383341 67.6609066,4.3510988 C67.3971425,4.51187086 67.1536143,4.7455309 67.1536143,5.35897571 C67.1536143,6.42718574 69.3345528,6.81010922 70.0030344,6.90252699 C73.9270491,7.44203758 76.2691769,9.48359863 76.2691769,12.3631971 C76.2691769,14.2356162 75.4164791,15.7875374 73.8691327,16.73264 C72.8130295,17.377472 71.4746708,17.6944824 69.9674472,17.6944824 Z" id="Fill-1" fill="#FEFEFE"></path>
                            <path d="M30.3849995,0.304839173 C25.6655057,0.304839173 21.8395302,4.1291915 21.8395302,8.84703194 C21.8395302,13.5648724 25.6655057,17.3892247 30.3849995,17.3892247 C35.1048423,17.3892247 38.9308177,13.5648724 38.9308177,8.84703194 C38.9308177,4.1291915 35.1048423,0.304839173 30.3849995,0.304839173 M30.3849995,4.25962263 C32.9155302,4.25962263 34.9743558,6.31757476 34.9743558,8.84703194 C34.9743558,11.3764891 32.9155302,13.4340925 30.3849995,13.4340925 C27.8544688,13.4340925 25.7959921,11.3764891 25.7959921,8.84703194 C25.7959921,6.31757476 27.8544688,4.25962263 30.3849995,4.25962263" id="Fill-3" fill="#FEFEFE"></path>
                            <mask id="mask-2" fill="white">
                                <use xlink:href="#path-1"></use>
                            </mask>
                            <g id="Clip-6"></g>
                            <path d="M12.5570565,4.83746044 L17.0916364,4.83746044 L17.0916364,0.305153045 L12.5570565,0.305153045 L12.5570565,4.83746044 Z M12.5570565,17.3891898 L17.0916364,17.3891898 L17.0916364,12.8568824 L12.5570565,12.8568824 L12.5570565,17.3891898 Z M12.5570565,11.1134995 L17.0916364,11.1134995 L17.0916364,6.58084337 L12.5570565,6.58084337 L12.5570565,11.1134995 Z M6.2787027,11.1134995 L10.8132826,11.1134995 L10.8132826,6.58084337 L6.2787027,6.58084337 L6.2787027,11.1134995 Z M0.000348894349,17.3891898 L4.53457985,17.3891898 L4.53457985,12.8568824 L0.000348894349,12.8568824 L0.000348894349,17.3891898 Z M0.000348894349,11.1134995 L4.53457985,11.1134995 L4.53457985,6.58084337 L0.000348894349,6.58084337 L0.000348894349,11.1134995 Z M0,4.83746044 L4.53423096,4.83746044 L4.53423096,0.305153045 L0,0.305153045 L0,4.83746044 Z" id="Fill-5" fill="#FEFEFE" mask="url(#mask-2)"></path>
                            <path d="M93.3662211,12.0910355 C92.4995676,12.9573214 91.3468206,13.4347551 90.1211548,13.4347551 C88.89514,13.4347551 87.742742,12.9573214 86.8753907,12.0910355 C86.0087371,11.2244008 85.5314496,10.0724917 85.5314496,8.84734582 C85.5314496,7.62185119 86.0087371,6.46994204 86.8753907,5.60330739 C87.742742,4.73702149 88.89514,4.25958776 90.1211548,4.25958776 C91.3468206,4.25958776 92.4995676,4.73702149 93.3662211,5.60330739 L96.1640049,2.80705926 C94.4952432,1.13935428 92.3080246,0.304804298 90.1211548,0.304804298 C87.9339361,0.304804298 85.7467174,1.13935428 84.0783047,2.80705926 C80.7404324,6.14246923 80.7404324,11.5515249 84.0783047,14.8872836 C85.7467174,16.5553373 87.9339361,17.3895386 90.1211548,17.3895386 C92.3080246,17.3895386 94.4952432,16.5553373 96.1640049,14.8876324 L93.3662211,12.0910355 Z" id="Fill-7" fill="#FEFEFE" mask="url(#mask-2)"></path>
                            <path d="M109.457263,0.304839173 C104.73777,0.304839173 100.911445,4.1291915 100.911445,8.84703194 C100.911445,13.5648724 104.73777,17.3892247 109.457263,17.3892247 C114.177106,17.3892247 118.003082,13.5648724 118.003082,8.84703194 C118.003082,4.1291915 114.177106,0.304839173 109.457263,0.304839173 M109.457263,4.25962263 C111.987794,4.25962263 114.04662,6.31757476 114.04662,8.84703194 C114.04662,11.3764891 111.987794,13.4340925 109.457263,13.4340925 C106.926733,13.4340925 104.868256,11.3764891 104.868256,8.84703194 C104.868256,6.31757476 106.926733,4.25962263 109.457263,4.25962263" id="Fill-8" fill="#FEFEFE" mask="url(#mask-2)"></path>
                            <polygon id="Fill-9" fill="#FEFEFE" mask="url(#mask-2)" points="136.677477 0.291900684 122.75101 0.291900684 122.75101 4.2463354 127.736013 4.2463354 127.736013 17.4024422 131.692475 17.4024422 131.692475 4.2463354 136.677477 4.2463354"></polygon>
                            <path d="M153.216221,12.0910355 C152.349916,12.9573214 151.197169,13.4347551 149.970805,13.4347551 C148.745488,13.4347551 147.59309,12.9573214 146.72539,12.0910355 C145.858737,11.2244008 145.381798,10.0724917 145.381798,8.84734582 C145.381798,7.62185119 145.858737,6.46994204 146.72539,5.60330739 C147.59309,4.73702149 148.745488,4.25958776 149.970805,4.25958776 C151.197169,4.25958776 152.349916,4.73667275 153.216221,5.60330739 L156.014353,2.80705926 C154.345243,1.13935428 152.158373,0.304804298 149.970805,0.304804298 C147.784285,0.304804298 145.596717,1.13935428 143.928304,2.80705926 C140.590432,6.14246923 140.590432,11.5515249 143.928304,14.8872836 C145.596717,16.5553373 147.784285,17.3895386 149.970805,17.3895386 C152.158373,17.3895386 154.345243,16.5553373 156.014353,14.8876324 L153.216221,12.0910355 Z" id="Fill-10" fill="#FEFEFE" mask="url(#mask-2)"></path>
                            <polygon id="Fill-11" fill="#FEFEFE" mask="url(#mask-2)" points="171.728066 0.304839173 171.728066 6.86964021 164.764833 6.86964021 164.764833 0.304839173 160.808022 0.304839173 160.808022 17.3892247 164.764833 17.3892247 164.764833 10.8244237 171.728066 10.8244237 171.728066 17.3892247 175.684528 17.3892247 175.684528 0.304839173"></polygon>
                            <path d="M51.3857528,9.39574943 L47.6351386,9.39574943 L47.6351386,4.23883735 L51.3857528,4.23883735 C52.8081951,4.23883735 53.9658265,5.3952802 53.9658265,6.81677027 C53.9658265,8.23930658 52.8081951,9.39574943 51.3857528,9.39574943 M51.3857528,0.284053891 L43.6786767,0.284053891 L43.6786767,0.325554705 L43.6786767,17.410289 L47.6351386,17.410289 L47.6351386,13.3505329 L51.3857528,13.3505329 C54.9898314,13.3505329 57.9215907,10.4200174 57.9215907,6.81677027 C57.9215907,3.21456936 54.9898314,0.284053891 51.3857528,0.284053891" id="Fill-12" fill="#FEFEFE" mask="url(#mask-2)"></path>
                            <polygon id="Fill-13" fill="#FEFEFE" mask="url(#mask-2)" points="45.6054806 25.5644317 44.3937705 23.6163347 43.031687 23.6163347 43.031687 28.7613894 44.3473676 28.7613894 44.3473676 25.8995769 45.4680162 27.6000641 45.5350039 27.6590022 45.6759572 27.6590022 46.84894 25.8786522 46.84894 28.7613894 48.1792742 28.7613894 48.1792742 23.6163347 46.8171907 23.6163347"></polygon>
                            <path d="M54.4971926,26.5445833 C54.4971926,27.2260336 54.1779543,27.5859399 53.5740182,27.5859399 C52.8113351,27.5859399 52.6511926,27.0010923 52.6511926,26.5097087 L52.6511926,23.6165091 L51.3145784,23.6165091 L51.3145784,26.5376084 C51.3145784,27.999553 52.1330845,28.8379392 53.5600624,28.8379392 C55.0051828,28.8379392 55.8338069,27.9869981 55.8338069,26.5027337 L55.8338069,23.6165091 L54.4971926,23.6165091 L54.4971926,26.5445833 Z" id="Fill-14" fill="#FEFEFE" mask="url(#mask-2)"></path>
                            <path d="M61.114602,25.580753 C60.2374816,25.3561604 60.1593292,25.2661838 60.1593292,25.0517049 C60.1593292,24.872798 60.3543612,24.7570142 60.6565037,24.7570142 C61.0162138,24.7570142 61.4073243,24.9066264 61.8521646,25.2145694 L61.9603219,25.2892011 L62.6619484,24.2722568 L62.5667002,24.1962301 C62.0294029,23.7651796 61.3916241,23.5465157 60.6704595,23.5465157 C59.5864447,23.5465157 58.8296929,24.2056462 58.8296929,25.1633037 C58.8296929,26.2555772 59.6077273,26.5429442 60.5472998,26.7828817 C61.3706904,26.9938732 61.4324447,27.1155857 61.4324447,27.2910051 C61.4324447,27.5968556 60.9935356,27.6209191 60.8592113,27.6209191 C60.3801794,27.6209191 59.9555749,27.4472434 59.4828231,27.0576938 L59.3826904,26.9750409 L58.5833735,27.9323496 L58.6779238,28.0163975 C59.2665086,28.5419582 60.0333784,28.8310689 60.8375799,28.8310689 C62.0070737,28.8310689 62.7627789,28.1858882 62.7627789,27.1724313 C62.7627789,26.207799 62.1040663,25.8384766 61.114602,25.580753" id="Fill-15" fill="#FEFEFE" mask="url(#mask-2)"></path>
                            <polygon id="Fill-16" fill="#FEFEFE" mask="url(#mask-2)" points="65.7868206 28.7614591 67.123086 28.7614591 67.123086 23.6164044 65.7868206 23.6164044"></polygon>
                            <path d="M74.036288,27.0547643 C73.6612265,27.3958382 73.3454771,27.5928799 72.8395803,27.5928799 C72.1069022,27.5928799 71.5542536,26.9892 71.5542536,26.1752261 C71.5542536,25.3825256 72.1069022,24.7847744 72.8395803,24.7847744 C73.2488334,24.7847744 73.6071479,24.9441515 74.0010496,25.3019652 L74.1004845,25.391593 L74.9521356,24.4095233 L74.8645631,24.323383 C74.3091233,23.7765487 73.6870447,23.5324263 72.847256,23.5324263 C71.3201455,23.5324263 70.1687941,24.6745706 70.1687941,26.1888272 L70.1687941,26.202777 C70.1687941,27.6846002 71.3267744,28.845228 72.8053887,28.845228 C73.6772757,28.845228 74.3049366,28.5721596 74.9036393,27.9315126 L74.9898162,27.8394436 L74.1290939,26.9703677 L74.036288,27.0547643 Z" id="Fill-17" fill="#FEFEFE" mask="url(#mask-2)"></path>
                            <polygon id="Fill-18" fill="#FEFEFE" mask="url(#mask-2)" points="82.2332816 28.7613894 83.5698958 28.7613894 83.5698958 26.8708355 85.9012079 26.8708355 85.9012079 25.6324373 83.5698958 25.6324373 83.5698958 24.8547329 86.2152128 24.8547329 86.2152128 23.6163347 82.2332816 23.6163347"></polygon>
                            <polygon id="Fill-19" fill="#FEFEFE" mask="url(#mask-2)" points="90.4431843 26.7799173 92.7465848 26.7799173 92.7465848 25.5627926 90.4431843 25.5627926 90.4431843 24.833564 93.0602408 24.833564 93.0602408 23.6164393 89.1135479 23.6164393 89.1135479 28.761494 93.0954791 28.761494 93.0954791 27.5440205 90.4431843 27.5440205"></polygon>
                            <path d="M98.2367514,25.580753 C97.359631,25.3558117 97.2814786,25.2658351 97.2814786,25.0517049 C97.2814786,24.872798 97.4765106,24.7570142 97.779002,24.7570142 C98.1383631,24.7570142 98.5294737,24.9066264 98.974314,25.2145694 L99.0824713,25.2892011 L99.7844467,24.2722568 L99.6891985,24.1958813 C99.1515523,23.7651796 98.5134246,23.5465157 97.7929577,23.5465157 C96.708943,23.5465157 95.9518423,24.2056462 95.9518423,25.1633037 C95.9518423,26.2555772 96.7298767,26.5429442 97.6694491,26.7828817 C98.4931887,26.9938732 98.554943,27.1155857 98.554943,27.2910051 C98.554943,27.5968556 98.115685,27.6209191 97.9813607,27.6209191 C97.50826,27.6209191 97.0714442,27.4420122 96.6056703,27.0576938 L96.5055376,26.9750409 L95.7055229,27.9323496 L95.8000732,28.0163975 C96.388658,28.5419582 97.1558767,28.8310689 97.9600781,28.8310689 C99.129572,28.8310689 99.8849283,28.1858882 99.8849283,27.1724313 C99.8849283,26.207799 99.2262157,25.8384766 98.2367514,25.580753" id="Fill-20" fill="#FEFEFE" mask="url(#mask-2)"></path>
                            <polygon id="Fill-21" fill="#FEFEFE" mask="url(#mask-2)" points="102.40712 24.8686479 103.894108 24.8686479 103.894108 28.7613545 105.230373 28.7613545 105.230373 24.8686479 106.717012 24.8686479 106.717012 23.6162998 102.40712 23.6162998"></polygon>
                            <polygon id="Fill-22" fill="#FEFEFE" mask="url(#mask-2)" points="109.629233 28.7614591 110.965848 28.7614591 110.965848 23.6164044 109.629233 23.6164044"></polygon>
                            <polygon id="Fill-23" fill="#FEFEFE" mask="url(#mask-2)" points="116.403785 26.8105721 115.217544 23.6164044 113.746605 23.6164044 115.826714 28.795985 116.952944 28.795985 119.033053 23.6164044 117.589677 23.6164044"></polygon>
                            <path d="M123.806904,26.4556879 L122.898383,26.4556879 L123.352644,25.3477207 L123.806904,26.4556879 Z M122.784644,23.5816693 L120.579631,28.7612499 L121.961253,28.7612499 L122.407838,27.6661864 L124.297799,27.6661864 L124.744732,28.7612499 L126.154265,28.7612499 L123.948904,23.5816693 L122.784644,23.5816693 Z" id="Fill-24" fill="#FEFEFE" mask="url(#mask-2)"></path>
                            <polygon id="Fill-25" fill="#FEFEFE" mask="url(#mask-2)" points="130.216826 27.5230609 130.216826 23.6164044 128.880561 23.6164044 128.880561 28.7614591 132.652457 28.7614591 132.652457 27.5230609"></polygon>
                        </g>
                    </g>
                </g>
            </g>
        </g>
    </g>
</svg>