<?xml version="1.0" encoding="UTF-8" standalone="no"?>
<svg width="155px" height="32px" viewBox="0 0 155 32" version="1.1" xmlns="http://www.w3.org/2000/svg" xmlns:xlink="http://www.w3.org/1999/xlink">
    <!-- Generator: Sketch 43.2 (39069) - http://www.bohemiancoding.com/sketch -->
    <title>Page 1</title>
    <desc>Created with Sketch.</desc>
    <defs>
        <polygon id="path-1" points="0.560910839 31.7027027 16.9716065 31.7027027 16.9716065 0.426332432 0.560910839 0.426332432"></polygon>
    </defs>
    <g id="Desktop" stroke="none" stroke-width="1" fill="none" fill-rule="evenodd">
        <g id="Desktop_Tickets_Page_1280" transform="translate(-437.000000, -4860.000000)">
            <g id="Group-4" transform="translate(-11.000000, 3333.000000)">
                <g id="Group-11" transform="translate(448.000000, 1527.000000)">
                    <g id="Page-1">
                        <polygon id="Fill-1" fill="#FFFFFF" points="11.5730114 0.674249914 11.5730114 18.5642229 11.4878167 18.5642229 4.96630072 0.674249914 0.000274821578 0.674249914 0.000274821578 31.9510337 4.83850869 31.9510337 4.83850869 12.4138986 4.92370337 12.4138986 11.746149 31.9510337 16.4112453 31.9510337 16.4112453 0.674249914"></polygon>
                        <polygon id="Fill-2" fill="#FFFFFF" points="22.4559459 0.674249914 22.4559459 31.9510337 37.397995 31.9510337 37.397995 27.2728175 27.8108443 27.2728175 27.8108443 18.087304 34.7198588 18.087304 34.7198588 13.4090878 27.8108443 13.4090878 27.8108443 5.35246613 36.7920134 5.35246613 36.7920134 0.674249914"></polygon>
                        <polygon id="Fill-3" fill="#FFFFFF" points="62.8749171 0.674249914 59.8972253 20.6014661 59.8106565 20.6014661 56.1816376 0.674249914 51.7776218 0.674249914 48.2791431 20.6014661 48.1939484 20.6014661 44.9125788 0.674249914 39.9025815 0.674249914 45.8181159 31.9510337 50.3100746 31.9510337 53.9363453 11.286385 54.0242882 11.286385 57.9102653 31.9510337 62.4008499 31.9510337 67.8849144 0.674249914"></polygon>
                        <polygon id="Fill-4" fill="#FFFFFF" points="93.406495 0.674249914 87.7932643 12.2416013 87.7080696 12.2416013 87.7080696 0.674249914 82.3517971 0.674249914 82.3517971 31.9510337 87.7080696 31.9510337 87.7080696 20.8619796 89.6057126 17.395358 89.6936555 17.395358 94.0550739 31.9510337 99.4965412 31.9510337 92.9763992 12.3270607 98.7613934 0.674249914"></polygon>
                        <polygon id="Fill-5" fill="#FFFFFF" points="103.382381 31.950758 108.737279 31.950758 108.737279 0.673974238 103.382381 0.673974238"></polygon>
                        <polygon id="Fill-6" fill="#FFFFFF" points="127.089177 0.674249914 127.089177 18.5642229 127.003982 18.5642229 120.483841 0.674249914 115.517815 0.674249914 115.517815 31.9510337 120.354674 31.9510337 120.354674 12.4138986 120.441243 12.4138986 127.262315 31.9510337 131.927411 31.9510337 131.927411 0.674249914"></polygon>
                        <g id="Group-9" transform="translate(137.410789, 0.248055)">
                            <mask id="mask-2" fill="white">
                                <use xlink:href="#path-1"></use>
                            </mask>
                            <g id="Clip-8"></g>
                            <path d="M5.91718337,27.2840351 L7.77497724,27.2840351 C10.6235029,27.2840351 11.6156088,26.2006297 11.6156088,22.9076838 L11.6156088,9.22038649 C11.6156088,5.92744054 10.6235029,4.84541351 7.77497724,4.84541351 L5.91718337,4.84541351 L5.91718337,27.2840351 Z M0.560910839,0.426332432 L8.50737674,0.426332432 C14.0340387,0.426332432 16.9718813,3.45876486 16.9718813,9.8696027 L16.9718813,22.2584676 C16.9718813,28.6693054 14.0340387,31.7031162 8.50737674,31.7031162 L0.560910839,31.7031162 L0.560910839,0.426332432 Z" id="Fill-7" fill="#FFFFFF" mask="url(#mask-2)"></path>
                        </g>
                    </g>
                </g>
            </g>
        </g>
    </g>
</svg>